<svg version="1.1" id="Capa_1" xmlns="http://www.w3.org/2000/svg" x="0" y="0" viewBox="0 0 290.262 290.262" xml:space="preserve"><path fill="currentColor" id="_x34_8-3D_icon" d="M278.743 33.612H11.519C5.157 33.612 0 38.77 0 45.131v200c0 6.361 5.157 11.519 11.519 11.519h267.225c6.361 0 11.519-5.157 11.519-11.519v-200c-.001-6.361-5.159-11.519-11.52-11.519zM127.045 162.625c-5.964 18.607-24.728 31.662-47.36 31.662-13.331 0-25.842-4.721-32.46-11.807l16.005-18.744c4.732 7.779 11.771 11.803 20.52 11.803 9.718 0 16.508-4.721 19.046-12.633 2.628-8.193-1.495-12.225-11.218-12.225H76.026l4.229-13.188 28.869-22.496H73.717l6.054-18.883h64.152l-4.498 14.021-32.398 25.273 4.357.695c13.455 2.223 20.467 11.53 15.661 26.522zM240.3 144.576c-9.213 28.74-36.963 48.596-68.205 48.596H131.27l20.67-64.473h24.715l-14.346 44.756h17.633c15.137 0 29.707-11.664 35.182-28.742 5.518-17.217-2.084-29.018-17.776-29.018l-41.233-.014 6.314-19.709h41.797c30.547.001 45.332 19.723 36.074 48.604z"/></svg>