<svg version="1.1" id="Capa_1" xmlns="http://www.w3.org/2000/svg" x="0" y="0" viewBox="0 0 60 60" xml:space="preserve"><path fill="currentColor" d="M48 14a6.953 6.953 0 00-3.5.947A6.953 6.953 0 0041 14c-3.859 0-7 3.14-7 7s3.141 7 7 7a6.953 6.953 0 003.5-.947A6.953 6.953 0 0048 28c3.859 0 7-3.14 7-7s-3.141-7-7-7zm-2 7a4.98 4.98 0 01-1.5 3.562 4.98 4.98 0 010-7.124A4.98 4.98 0 0146 21zm-10 0c0-2.757 2.243-5 5-5 .631 0 1.23.13 1.787.345C41.68 17.583 41 19.212 41 21s.68 3.417 1.787 4.655A4.946 4.946 0 0141 26c-2.757 0-5-2.243-5-5zm12 5c-.631 0-1.23-.13-1.787-.345C47.32 24.417 48 22.788 48 21s-.68-3.417-1.787-4.655A4.946 4.946 0 0148 16c2.757 0 5 2.243 5 5s-2.243 5-5 5z"/><path fill="currentColor" d="M55.783 8H4.217A4.222 4.222 0 000 12.217v35.566A4.222 4.222 0 004.217 52h51.566A4.222 4.222 0 0060 47.783V12.217A4.222 4.222 0 0055.783 8zM58 47.783A2.22 2.22 0 0155.783 50H4.217A2.22 2.22 0 012 47.783V12.217A2.22 2.22 0 014.217 10h51.566A2.22 2.22 0 0158 12.217v35.566z"/><path fill="currentColor" d="M6 18h9a1 1 0 100-2H6a1 1 0 100 2zm22-2h-9a1 1 0 100 2h9a1 1 0 100-2zM6 23h1a1 1 0 100-2H6a1 1 0 100 2zm5-2a1 1 0 100 2h2a1 1 0 100-2h-2zm8 1a1 1 0 00-1-1h-1a1 1 0 100 2h1a1 1 0 001-1zm5 1a1 1 0 100-2h-2a1 1 0 100 2h2zm3.3-1.71c-.191.19-.3.44-.3.71s.109.52.29.71c.189.18.45.29.71.29s.52-.11.71-.29c.18-.19.29-.45.29-.71 0-.26-.11-.52-.29-.7-.37-.38-1.05-.38-1.41-.01zM5 45h11v-8H5v8zm2-6h7v4H7v-4zm11 6h11v-8H18v8zm2-6h7v4h-7v-4zm11 6h11v-8H31v8zm2-6h7v4h-7v-4zm11 6h11v-8H44v8zm2-6h7v4h-7v-4z"/></svg>