<svg version="1.1" id="Layer_1" xmlns="http://www.w3.org/2000/svg" x="0" y="0" viewBox="0 0 512 512" xml:space="preserve"><path fill="currentColor" d="M466.896 87.859L381.384 2.347A8.014 8.014 0 00375.716 0H119.182c-13.851 0-25.119 11.268-25.119 25.119v291.273H67.875c-13.851 0-25.119 11.268-25.119 25.119v85.511c0 13.851 11.268 25.119 25.119 25.119h26.188v34.739c0 13.851 11.268 25.119 25.119 25.119h324.944c13.851 0 25.119-11.268 25.119-25.119V93.528a8.02 8.02 0 00-2.349-5.669zM383.733 27.37l58.141 58.141h-49.056c-5.01 0-9.086-4.076-9.086-9.086V27.37zM67.875 436.109c-5.01 0-9.086-4.076-9.086-9.086v-85.511c0-5.01 4.076-9.086 9.086-9.086h230.881c5.01 0 9.086 4.076 9.086 9.086v85.511c0 5.01-4.076 9.086-9.086 9.086H67.875zm385.336 50.772c0 5.01-4.076 9.086-9.086 9.086H119.182c-5.01 0-9.086-4.076-9.086-9.086v-34.739h188.66c13.851 0 25.119-11.268 25.119-25.119v-85.511c0-13.851-11.268-25.119-25.119-25.119h-188.66V25.119c0-5.01 4.076-9.086 9.086-9.086H367.7v60.393c0 13.851 11.268 25.119 25.119 25.119h60.393v385.336z"/><path fill="currentColor" d="M119.182 350.597H84.977a8.017 8.017 0 00-8.017 8.017v51.307a8.017 8.017 0 0016.034 0v-9.086h26.188c13.851 0 25.119-11.268 25.119-25.119 0-13.851-11.269-25.119-25.119-25.119zm0 34.205H92.994V366.63h26.188c5.01 0 9.086 4.076 9.086 9.086-.001 5.01-4.076 9.086-9.086 9.086zm68.409-34.205h-25.653a8.017 8.017 0 00-8.017 8.017v51.307a8.017 8.017 0 008.017 8.017h25.653c18.566 0 33.67-15.105 33.67-33.67 0-18.566-15.105-33.671-33.67-33.671zm0 51.307h-17.637V366.63h17.637c9.725 0 17.637 7.912 17.637 17.637s-7.912 17.637-17.637 17.637zm94.062-51.307h-42.756a8.017 8.017 0 00-8.017 8.017v51.307a8.017 8.017 0 0016.034 0v-17.637h17.637a8.017 8.017 0 000-16.034h-17.637v-9.62h34.739a8.017 8.017 0 000-16.033zm0-256.534c-51.572 0-93.528 41.956-93.528 93.528s41.956 93.528 93.528 93.528 93.528-41.956 93.528-93.528-41.956-93.528-93.528-93.528zm0 171.023c-42.731 0-77.495-34.764-77.495-77.495s34.764-77.495 77.495-77.495 77.495 34.764 77.495 77.495-34.763 77.495-77.495 77.495z"/><path fill="currentColor" d="M281.739 136.818h-.086c-4.427 0-7.974 3.589-7.974 8.017s3.632 8.017 8.059 8.017a8.017 8.017 0 00.001-16.034zm8.466 85.512h-.534v-43.825h.534a8.017 8.017 0 000-16.034h-17.102a8.017 8.017 0 000 16.034h.534v43.825h-.534a8.017 8.017 0 000 16.034h17.102a8.017 8.017 0 000-16.034z"/></svg>