<svg viewBox="0 0 512 512" xmlns="http://www.w3.org/2000/svg" xmlns:xlink="http://www.w3.org/1999/xlink"><style>:root&gt;svg{display:none}:root&gt;svg:target{display:block}</style><svg viewBox="0 0 290.262 290.262" id="3d" xmlns="http://www.w3.org/2000/svg"><path fill="currentColor" d="M278.743 33.612H11.519C5.157 33.612 0 38.77 0 45.131v200c0 6.361 5.157 11.519 11.519 11.519h267.225c6.361 0 11.519-5.157 11.519-11.519v-200c-.001-6.361-5.159-11.519-11.52-11.519zM127.045 162.625c-5.964 18.607-24.728 31.662-47.36 31.662-13.331 0-25.842-4.721-32.46-11.807l16.005-18.744c4.732 7.779 11.771 11.803 20.52 11.803 9.718 0 16.508-4.721 19.046-12.633 2.628-8.193-1.495-12.225-11.218-12.225H76.026l4.229-13.188 28.869-22.496H73.717l6.054-18.883h64.152l-4.498 14.021-32.398 25.273 4.357.695c13.455 2.223 20.467 11.53 15.661 26.522zM240.3 144.576c-9.213 28.74-36.963 48.596-68.205 48.596H131.27l20.67-64.473h24.715l-14.346 44.756h17.633c15.137 0 29.707-11.664 35.182-28.742 5.518-17.217-2.084-29.018-17.776-29.018l-41.233-.014 6.314-19.709h41.797c30.547.001 45.332 19.723 36.074 48.604z"/></svg><svg viewBox="0 0 60 60" id="credit" xmlns="http://www.w3.org/2000/svg"><path fill="currentColor" d="M48 14a6.953 6.953 0 00-3.5.947A6.953 6.953 0 0041 14c-3.859 0-7 3.14-7 7s3.141 7 7 7a6.953 6.953 0 003.5-.947A6.953 6.953 0 0048 28c3.859 0 7-3.14 7-7s-3.141-7-7-7zm-2 7a4.98 4.98 0 01-1.5 3.562 4.98 4.98 0 010-7.124A4.98 4.98 0 0146 21zm-10 0c0-2.757 2.243-5 5-5 .631 0 1.23.13 1.787.345C41.68 17.583 41 19.212 41 21s.68 3.417 1.787 4.655A4.946 4.946 0 0141 26c-2.757 0-5-2.243-5-5zm12 5c-.631 0-1.23-.13-1.787-.345C47.32 24.417 48 22.788 48 21s-.68-3.417-1.787-4.655A4.946 4.946 0 0148 16c2.757 0 5 2.243 5 5s-2.243 5-5 5z"/><path fill="currentColor" d="M55.783 8H4.217A4.222 4.222 0 000 12.217v35.566A4.222 4.222 0 004.217 52h51.566A4.222 4.222 0 0060 47.783V12.217A4.222 4.222 0 0055.783 8zM58 47.783A2.22 2.22 0 0155.783 50H4.217A2.22 2.22 0 012 47.783V12.217A2.22 2.22 0 014.217 10h51.566A2.22 2.22 0 0158 12.217v35.566z"/><path fill="currentColor" d="M6 18h9a1 1 0 100-2H6a1 1 0 100 2zm22-2h-9a1 1 0 100 2h9a1 1 0 100-2zM6 23h1a1 1 0 100-2H6a1 1 0 100 2zm5-2a1 1 0 100 2h2a1 1 0 100-2h-2zm8 1a1 1 0 00-1-1h-1a1 1 0 100 2h1a1 1 0 001-1zm5 1a1 1 0 100-2h-2a1 1 0 100 2h2zm3.3-1.71c-.191.19-.3.44-.3.71s.109.52.29.71c.189.18.45.29.71.29s.52-.11.71-.29c.18-.19.29-.45.29-.71 0-.26-.11-.52-.29-.7-.37-.38-1.05-.38-1.41-.01zM5 45h11v-8H5v8zm2-6h7v4H7v-4zm11 6h11v-8H18v8zm2-6h7v4h-7v-4zm11 6h11v-8H31v8zm2-6h7v4h-7v-4zm11 6h11v-8H44v8zm2-6h7v4h-7v-4z"/></svg><svg viewBox="0 0 48.625 48.625" id="earth" xmlns="http://www.w3.org/2000/svg"><path fill="currentColor" d="M35.432 10.815l.047.361-.541.112-.072.769h.648l.862-.083.445-.529-.473-.184-.259-.298-.389-.63-.186-.891-.731.149-.205.314v.354l.352.241z"/><path fill="currentColor" d="M34.809 11.111l.039-.482-.429-.185-.6.139-.445.714v.463h.519zm-12.35 2.047l-.132.34h-.639v.33h.152l.022.162.392-.033.245-.152.064-.307.317-.027.125-.258-.291-.06-.255.005zm-1.647.599l-.025.323.463-.039.048-.324-.278-.219z"/><path d="M48.619 24.061a24.552 24.552 0 00-.11-2.112 24.165 24.165 0 00-1.609-6.62c-.062-.155-.119-.312-.185-.465a24.341 24.341 0 00-4.939-7.441 24.19 24.19 0 00-1.11-1.086A24.22 24.22 0 0024.312 0c-6.345 0-12.126 2.445-16.46 6.44a24.6 24.6 0 00-2.78 3.035A24.18 24.18 0 000 24.312c0 13.407 10.907 24.313 24.313 24.313 9.43 0 17.617-5.4 21.647-13.268a24.081 24.081 0 002.285-6.795c.245-1.381.379-2.801.379-4.25.001-.084-.004-.167-.005-.251zm-4.576-9.717l.141-.158c.185.359.358.724.523 1.094l-.23-.009-.434.06v-.987zm-3.513-4.242l.004-1.086c.382.405.75.822 1.102 1.254l-.438.652-1.531-.014-.096-.319.959-.487zM11.202 7.403v-.041h.487l.042-.167h.797v.348l-.229.306h-1.098l.001-.446zm.778 1.085s.487-.083.529-.083 0 .486 0 .486l-1.098.069-.209-.25.778-.222zm33.612 9.651h-1.779l-1.084-.807-1.141.111v.696h-.361l-.39-.278-1.976-.501v-1.28l-2.504.195-.776.417h-.994l-.487-.049-1.207.67v1.261l-2.467 1.78.205.76h.5l-.131.724-.352.129-.019 1.892 2.132 2.428h.928l.056-.148h1.668l.481-.445h.946l.519.52 1.41.146-.187 1.875 1.565 2.763-.824 1.575.056.742.649.647v1.784l.852 1.146v1.482h.736c-4.096 5.029-10.33 8.25-17.305 8.25C12.009 46.625 2 36.615 2 24.312c0-3.097.636-6.049 1.781-8.732v-.696l.798-.969c.277-.523.574-1.033.891-1.53l.036.405-.926 1.125a22.14 22.14 0 00-.798 1.665v1.27l.927.446v1.765l.889 1.517.723.111.093-.52-.853-1.316-.167-1.279h.5l.211 1.316 1.233 1.799-.318.581.784 1.199 1.947.482v-.315l.779.111-.074.556.612.112.945.258 1.335 1.521 1.705.129.167 1.391-1.167.816-.055 1.242-.167.76 1.688 2.113.129.724s.612.166.687.166c.074 0 1.372.983 1.372.983v3.819l.463.13-.315 1.762.779 1.039-.144 1.746 1.029 1.809 1.321 1.154 1.328.024.13-.427-.976-.822.056-.408.175-.5.037-.51-.66-.02-.333-.418.548-.527.074-.398-.612-.175.036-.37.872-.132 1.326-.637.445-.816 1.391-1.78-.316-1.392.427-.741 1.279.039.861-.682.278-2.686.955-1.213.167-.779-.871-.279-.575-.943-1.965-.02-1.558-.594-.074-1.111-.52-.909-1.409-.021-.814-1.278-.723-.353-.037.39-1.316.078-.482-.671-1.373-.279-1.131 1.307-1.78-.302-.129-2.006-1.299-.222.521-.984-.149-.565-1.707 1.141-1.074-.131-.383-.839.234-.865.592-1.091 1.363-.69 2.632-.001-.007.803.946.44-.075-1.372.682-.686 1.376-.904.094-.636 1.372-1.428 1.459-.808-.129-.106.988-.93.362.096.166.208.375-.416.092-.041-.411-.058-.417-.139v-.4l.221-.181h.487l.223.098.193.39.236-.036v-.034l.068.023.684-.105.097-.334.39.098v.362l-.362.249h.001l.053.397 1.239.382.003.015.285-.024.019-.537-.982-.447-.056-.258.815-.278.036-.78-.852-.519-.056-1.315-1.168.574h-.426l.112-1.001-1.59-.375-.658.497v1.516l-1.183.375-.474.988-.514.083v-1.264l-1.112-.154-.556-.362-.224-.819 1.989-1.164.973-.296.098.654.542-.028.042-.329.567-.081.01-.115-.244-.101-.056-.348.697-.059.421-.438.023-.032.005.002.128-.132 1.465-.185.648.55-1.699.905 2.162.51.28-.723h.945l.334-.63-.668-.167v-.797l-2.095-.928-1.446.167-.816.427.056 1.038-.853-.13-.131-.574.817-.742-1.483-.074-.426.129-.185.5.556.094-.111.556-.945.056-.148.37-1.371.038s-.038-.778-.093-.778l1.075-.019.817-.798-.446-.223-.593.576-.984-.056-.593-.816h-1.261l-1.316.983h1.206l.11.353-.313.291 1.335.037.204.482-1.503-.056-.073-.371-.945-.204-.501-.278-1.125.009A22.188 22.188 0 0124.312 2c5.642 0 10.797 2.109 14.73 5.574l-.265.474-1.029.403-.434.471.1.549.531.074.32.8.916-.369.151 1.07h-.276l-.752-.111-.834.14-.807 1.14-1.154.181-.167.988.487.115-.141.635-1.146-.23-1.051.23-.223.585.182 1.228.617.289 1.035-.006.699-.063.213-.556 1.092-1.419.719.147.708-.64.132.5 1.742 1.175-.213.286-.785-.042.302.428.483.106.566-.236-.012-.682.251-.126-.202-.214-1.162-.648-.306-.861h.966l.309.306.832.717.035.867.862.918.321-1.258.597-.326.112 1.029.583.64 1.163-.02c.225.579.427 1.168.604 1.769l-.121.112zm-32.331-7.093l.584-.278.528.126-.182.709-.57.181-.36-.738zm3.099 1.669v.459h-1.334l-.5-.139.125-.32.641-.265h.876v.265h.192zm.614.64v.445l-.334.215-.416.077v-.737h.75zm-.376-.181v-.529l.459.418-.459.111zm.209 1.07v.433l-.319.32h-.709l.111-.486.335-.029.069-.167.513-.071zm-1.766-.889h.737l-.945 1.321-.39-.209.084-.556.514-.556zm3.018.737v.432h-.709l-.194-.28v-.402h.056l.847.25zm-.655-.594l.202-.212.341.212-.273.225-.27-.225zm28.55 5.767l.07-.082c.029.126.06.252.088.38l-.158-.298z" fill="currentColor"/><path d="M3.782 14.884v.696c.243-.568.511-1.122.798-1.665l-.798.969z" fill="currentColor"/></svg><svg viewBox="0 0 48.605 48.605" id="facebook" xmlns="http://www.w3.org/2000/svg"><path d="M34.094 8.688h4.756V.005h-8.643c-.721-.03-9.51-.198-11.788 8.489-.033.091-.761 2.157-.761 6.983l-7.903.024v9.107l7.913-.023v24.021h12.087v-24h8v-9.131h-8v-2.873c0-1.786.753-3.914 4.339-3.914zm1.661 8.786v5.131h-8v24h-8.087V22.579l-7.913.023v-5.107l7.934-.023-.021-1.017c-.104-5.112.625-7.262.658-7.365 1.966-7.482 9.473-7.106 9.795-7.086l6.729.002v4.683h-2.756c-4.673 0-6.338 3.054-6.338 5.912v4.873h7.999z" fill="currentColor"/></svg><svg viewBox="0 0 58.365 58.365" id="home" xmlns="http://www.w3.org/2000/svg"><path d="M57.863 26.632l-8.681-8.061V5.365h-10v3.921L29.182 0 .502 26.632a1.001 1.001 0 001.362 1.466l3.319-3.082v33.349h48v-33.35l3.319 3.082a.995.995 0 00.681.267 1 1 0 00.68-1.732zM41.182 7.365h6v9.349l-6-5.571V7.365zm-18 49V35.302c0-.517.42-.937.937-.937h10.126c.517 0 .937.42.937.937v21.063h-12zm28 0h-14V35.302a2.94 2.94 0 00-2.937-2.937H24.119a2.94 2.94 0 00-2.937 2.937v21.063h-14V23.158l22-20.429 14.28 13.26 5.72 5.311 2 1.857v33.208z" fill="currentColor"/></svg><svg viewBox="0 0 512 512" id="language" xmlns="http://www.w3.org/2000/svg"><path fill="currentColor" d="M320 24H16v304h176v168h304V192H320zM148.305 96L98.093 239.3H132l8.166-23.3H192v80H48V56h240v136h-66.668L187.7 96zm36.317 88h-33.244L168 136.562zM464 224v240H224V224z" class="fci-primary"/><path fill="currentColor" d="M317.432 368.48a136.761 136.761 0 0010.089 14.12q-17.4 9.384-39.521 9.4v32c24.141 0 45.71-6.408 64-18.824C370.29 417.592 391.859 424 416 424v-32q-22.075 0-39.52-9.407a136.574 136.574 0 0010.088-14.113A166.212 166.212 0 00406.662 320H424v-32h-56v-24h-32v24h-56v32h17.338a166.212 166.212 0 0020.094 48.48zM373.53 320a133.013 133.013 0 01-14.1 31.52 104.39 104.39 0 01-7.43 10.448 103.546 103.546 0 01-6.93-9.651A132.384 132.384 0 01330.466 320z" class="fci-primary"/></svg><svg viewBox="0 0 512 512" id="options" xmlns="http://www.w3.org/2000/svg"><path d="M64 144h226.75a48 48 0 0090.5 0H448a16 16 0 000-32h-66.75a48 48 0 00-90.5 0H64a16 16 0 000 32zm384 224h-66.75a48 48 0 00-90.5 0H64a16 16 0 000 32h226.75a48 48 0 0090.5 0H448a16 16 0 000-32zm0-128H221.25a48 48 0 00-90.5 0H64a16 16 0 000 32h66.75a48 48 0 0090.5 0H448a16 16 0 000-32z" fill="currentColor"/></svg><svg viewBox="0 0 512 512" id="pdf" xmlns="http://www.w3.org/2000/svg"><path fill="currentColor" d="M466.896 87.859L381.384 2.347A8.014 8.014 0 00375.716 0H119.182c-13.851 0-25.119 11.268-25.119 25.119v291.273H67.875c-13.851 0-25.119 11.268-25.119 25.119v85.511c0 13.851 11.268 25.119 25.119 25.119h26.188v34.739c0 13.851 11.268 25.119 25.119 25.119h324.944c13.851 0 25.119-11.268 25.119-25.119V93.528a8.02 8.02 0 00-2.349-5.669zM383.733 27.37l58.141 58.141h-49.056c-5.01 0-9.086-4.076-9.086-9.086V27.37zM67.875 436.109c-5.01 0-9.086-4.076-9.086-9.086v-85.511c0-5.01 4.076-9.086 9.086-9.086h230.881c5.01 0 9.086 4.076 9.086 9.086v85.511c0 5.01-4.076 9.086-9.086 9.086H67.875zm385.336 50.772c0 5.01-4.076 9.086-9.086 9.086H119.182c-5.01 0-9.086-4.076-9.086-9.086v-34.739h188.66c13.851 0 25.119-11.268 25.119-25.119v-85.511c0-13.851-11.268-25.119-25.119-25.119h-188.66V25.119c0-5.01 4.076-9.086 9.086-9.086H367.7v60.393c0 13.851 11.268 25.119 25.119 25.119h60.393v385.336z"/><path fill="currentColor" d="M119.182 350.597H84.977a8.017 8.017 0 00-8.017 8.017v51.307a8.017 8.017 0 0016.034 0v-9.086h26.188c13.851 0 25.119-11.268 25.119-25.119 0-13.851-11.269-25.119-25.119-25.119zm0 34.205H92.994V366.63h26.188c5.01 0 9.086 4.076 9.086 9.086-.001 5.01-4.076 9.086-9.086 9.086zm68.409-34.205h-25.653a8.017 8.017 0 00-8.017 8.017v51.307a8.017 8.017 0 008.017 8.017h25.653c18.566 0 33.67-15.105 33.67-33.67 0-18.566-15.105-33.671-33.67-33.671zm0 51.307h-17.637V366.63h17.637c9.725 0 17.637 7.912 17.637 17.637s-7.912 17.637-17.637 17.637zm94.062-51.307h-42.756a8.017 8.017 0 00-8.017 8.017v51.307a8.017 8.017 0 0016.034 0v-17.637h17.637a8.017 8.017 0 000-16.034h-17.637v-9.62h34.739a8.017 8.017 0 000-16.033zm0-256.534c-51.572 0-93.528 41.956-93.528 93.528s41.956 93.528 93.528 93.528 93.528-41.956 93.528-93.528-41.956-93.528-93.528-93.528zm0 171.023c-42.731 0-77.495-34.764-77.495-77.495s34.764-77.495 77.495-77.495 77.495 34.764 77.495 77.495-34.763 77.495-77.495 77.495z"/><path fill="currentColor" d="M281.739 136.818h-.086c-4.427 0-7.974 3.589-7.974 8.017s3.632 8.017 8.059 8.017a8.017 8.017 0 00.001-16.034zm8.466 85.512h-.534v-43.825h.534a8.017 8.017 0 000-16.034h-17.102a8.017 8.017 0 000 16.034h.534v43.825h-.534a8.017 8.017 0 000 16.034h17.102a8.017 8.017 0 000-16.034z"/></svg><svg viewBox="0 0 487.95 487.95" id="search" xmlns="http://www.w3.org/2000/svg"><path d="M481.8 453l-140-140.1c27.6-33.1 44.2-75.4 44.2-121.6C386 85.9 299.5.2 193.1.2S0 86 0 191.4s86.5 191.1 192.9 191.1c45.2 0 86.8-15.5 119.8-41.4l140.5 140.5c8.2 8.2 20.4 8.2 28.6 0 8.2-8.2 8.2-20.4 0-28.6zM41 191.4c0-82.8 68.2-150.1 151.9-150.1s151.9 67.3 151.9 150.1-68.2 150.1-151.9 150.1S41 274.1 41 191.4z" fill="currentColor"/></svg><svg viewBox="0 0 470.175 470.175" id="virtual-reality" xmlns="http://www.w3.org/2000/svg"><path d="M429.219 44.707a7.5 7.5 0 00-3.751-3.751C365.393 13.84 301.347.092 235.11.089 168.828.092 104.782 13.84 44.707 40.956a7.5 7.5 0 00-3.751 3.751c-54.607 120.989-54.607 259.772 0 380.762a7.5 7.5 0 003.751 3.751c60.075 27.115 124.121 40.864 190.359 40.867 66.282-.003 130.328-13.752 190.403-40.867a7.5 7.5 0 003.751-3.751c54.607-120.99 54.607-259.773-.001-380.762zm18.83 269.942c-30.935 8.29-63.534 14.636-97.032 19.036 3.264-29.816 5.033-60.309 5.268-91.098h98.817a448.226 448.226 0 01-7.053 72.062zM242.587 455.018v-98.717c30.76-.252 61.345-2.057 91.238-5.34-4.448 33.581-10.856 66.139-19.157 97.093-23.644 4.239-47.703 6.568-72.081 6.964zM22.125 155.526c30.944-8.292 63.553-14.64 97.062-19.04-3.278 29.942-5.038 60.47-5.285 91.102H15.073a448.224 448.224 0 017.052-72.062zM227.587 15.157v98.717c-30.748.252-61.32 2.056-91.202 5.336 4.437-33.512 10.827-66.111 19.134-97.092 23.64-4.237 47.695-6.566 72.068-6.961zm87.076 6.963c8.267 30.83 14.673 63.323 19.133 97.091-29.884-3.281-60.459-5.085-91.209-5.337V15.157c24.377.396 48.433 2.724 72.076 6.963zm-87.076 106.939v98.528H128.89c.255-31.287 2.13-62.453 5.602-92.977 30.597-3.452 61.82-5.295 93.095-5.551zM15.073 242.587h98.819c.25 30.505 2.026 61.029 5.325 91.106-33.519-4.4-66.138-10.75-97.092-19.044a448.224 448.224 0 01-7.052-72.062zm113.808 0h98.706v98.528c-31.271-.255-62.489-2.099-93.081-5.55-3.494-30.672-5.364-61.838-5.625-92.978zm113.706 98.529v-98.528h98.698c-.244 31.455-2.11 62.587-5.564 92.972-30.609 3.455-61.845 5.3-93.134 5.556zM356.28 227.587a930.966 930.966 0 00-.799-31.606c-.176-4.138-3.652-7.365-7.812-7.175a7.5 7.5 0 00-7.175 7.812c.44 10.341.696 20.668.785 30.97h-98.692V129.06c31.274.255 62.496 2.099 93.091 5.551a875.02 875.02 0 013.066 32.309 7.502 7.502 0 008.047 6.911 7.5 7.5 0 006.91-8.047 893.648 893.648 0 00-2.713-29.297c33.508 4.4 66.117 10.748 97.061 19.04a448.226 448.226 0 017.053 72.062H356.28zm88.494-88.453c-30.416-7.805-62.531-13.872-95.625-18.103-4.23-33.17-10.29-65.177-18.122-95.657 29.303 6.403 57.926 15.774 85.68 28.093a447.359 447.359 0 0128.067 85.667zM53.468 53.467c27.752-12.318 56.374-21.689 85.675-28.092-7.864 30.623-13.901 62.729-18.108 95.655-33.098 4.231-65.216 10.299-95.634 18.104a447.359 447.359 0 0128.067-85.667zM25.401 331.041c30.42 7.806 62.54 13.874 95.64 18.105a834.444 834.444 0 005.431 36.235 7.503 7.503 0 008.668 6.114 7.5 7.5 0 006.113-8.668 817.393 817.393 0 01-4.845-31.859c29.874 3.279 60.439 5.082 91.179 5.334v98.717c-24.381-.396-48.442-2.725-72.089-6.965a718.555 718.555 0 01-8.637-36.051c-.863-4.051-4.85-6.63-8.898-5.773a7.5 7.5 0 00-5.773 8.898 742.82 742.82 0 006.954 29.673c-29.301-6.403-57.923-15.774-85.675-28.092a447.348 447.348 0 01-28.068-85.668zm391.306 85.667c-27.753 12.318-56.375 21.69-85.677 28.093 7.865-30.602 13.937-62.665 18.156-95.661 33.082-4.231 65.184-10.297 95.588-18.099a447.382 447.382 0 01-28.067 85.667z" fill="currentColor"/></svg><svg viewBox="0 0 49 49" id="youtube" xmlns="http://www.w3.org/2000/svg"><path d="M39.256 6.5H9.744C4.371 6.5 0 10.885 0 16.274v16.451c0 5.39 4.371 9.774 9.744 9.774h29.512c5.373 0 9.744-4.385 9.744-9.774V16.274c0-5.389-4.371-9.774-9.744-9.774zM47 32.726c0 4.287-3.474 7.774-7.744 7.774H9.744C5.474 40.5 2 37.012 2 32.726V16.274C2 11.988 5.474 8.5 9.744 8.5h29.512c4.27 0 7.744 3.488 7.744 7.774v16.452z" fill="currentColor"/><path d="M33.36 24.138l-13.855-8.115a1.002 1.002 0 00-1.505.863v16.229a1.002 1.002 0 001 1 1 1 0 00.505-.137l13.855-8.113a1 1 0 000-1.727zM20 31.37V18.63l10.876 6.371L20 31.37z" fill="currentColor"/></svg></svg>