<svg version="1.1" id="Capa_1" xmlns="http://www.w3.org/2000/svg" x="0" y="0" viewBox="0 0 470.175 470.175" xml:space="preserve"><path d="M429.219 44.707a7.5 7.5 0 00-3.751-3.751C365.393 13.84 301.347.092 235.11.089 168.828.092 104.782 13.84 44.707 40.956a7.5 7.5 0 00-3.751 3.751c-54.607 120.989-54.607 259.772 0 380.762a7.5 7.5 0 003.751 3.751c60.075 27.115 124.121 40.864 190.359 40.867 66.282-.003 130.328-13.752 190.403-40.867a7.5 7.5 0 003.751-3.751c54.607-120.99 54.607-259.773-.001-380.762zm18.83 269.942c-30.935 8.29-63.534 14.636-97.032 19.036 3.264-29.816 5.033-60.309 5.268-91.098h98.817a448.226 448.226 0 01-7.053 72.062zM242.587 455.018v-98.717c30.76-.252 61.345-2.057 91.238-5.34-4.448 33.581-10.856 66.139-19.157 97.093-23.644 4.239-47.703 6.568-72.081 6.964zM22.125 155.526c30.944-8.292 63.553-14.64 97.062-19.04-3.278 29.942-5.038 60.47-5.285 91.102H15.073a448.224 448.224 0 017.052-72.062zM227.587 15.157v98.717c-30.748.252-61.32 2.056-91.202 5.336 4.437-33.512 10.827-66.111 19.134-97.092 23.64-4.237 47.695-6.566 72.068-6.961zm87.076 6.963c8.267 30.83 14.673 63.323 19.133 97.091-29.884-3.281-60.459-5.085-91.209-5.337V15.157c24.377.396 48.433 2.724 72.076 6.963zm-87.076 106.939v98.528H128.89c.255-31.287 2.13-62.453 5.602-92.977 30.597-3.452 61.82-5.295 93.095-5.551zM15.073 242.587h98.819c.25 30.505 2.026 61.029 5.325 91.106-33.519-4.4-66.138-10.75-97.092-19.044a448.224 448.224 0 01-7.052-72.062zm113.808 0h98.706v98.528c-31.271-.255-62.489-2.099-93.081-5.55-3.494-30.672-5.364-61.838-5.625-92.978zm113.706 98.529v-98.528h98.698c-.244 31.455-2.11 62.587-5.564 92.972-30.609 3.455-61.845 5.3-93.134 5.556zM356.28 227.587a930.966 930.966 0 00-.799-31.606c-.176-4.138-3.652-7.365-7.812-7.175a7.5 7.5 0 00-7.175 7.812c.44 10.341.696 20.668.785 30.97h-98.692V129.06c31.274.255 62.496 2.099 93.091 5.551a875.02 875.02 0 013.066 32.309 7.502 7.502 0 008.047 6.911 7.5 7.5 0 006.91-8.047 893.648 893.648 0 00-2.713-29.297c33.508 4.4 66.117 10.748 97.061 19.04a448.226 448.226 0 017.053 72.062H356.28zm88.494-88.453c-30.416-7.805-62.531-13.872-95.625-18.103-4.23-33.17-10.29-65.177-18.122-95.657 29.303 6.403 57.926 15.774 85.68 28.093a447.359 447.359 0 0128.067 85.667zM53.468 53.467c27.752-12.318 56.374-21.689 85.675-28.092-7.864 30.623-13.901 62.729-18.108 95.655-33.098 4.231-65.216 10.299-95.634 18.104a447.359 447.359 0 0128.067-85.667zM25.401 331.041c30.42 7.806 62.54 13.874 95.64 18.105a834.444 834.444 0 005.431 36.235 7.503 7.503 0 008.668 6.114 7.5 7.5 0 006.113-8.668 817.393 817.393 0 01-4.845-31.859c29.874 3.279 60.439 5.082 91.179 5.334v98.717c-24.381-.396-48.442-2.725-72.089-6.965a718.555 718.555 0 01-8.637-36.051c-.863-4.051-4.85-6.63-8.898-5.773a7.5 7.5 0 00-5.773 8.898 742.82 742.82 0 006.954 29.673c-29.301-6.403-57.923-15.774-85.675-28.092a447.348 447.348 0 01-28.068-85.668zm391.306 85.667c-27.753 12.318-56.375 21.69-85.677 28.093 7.865-30.602 13.937-62.665 18.156-95.661 33.082-4.231 65.184-10.297 95.588-18.099a447.382 447.382 0 01-28.067 85.667z" fill="currentColor"/></svg>